<svg width="45" height="45" viewBox="0 0 45 45" fill="none" xmlns="http://www.w3.org/2000/svg">
<mask id="path-1-inside-1_46_6" fill="white">
<path fill-rule="evenodd" clip-rule="evenodd" d="M31.0278 43.3277C39.2257 39.9676 45 31.9081 45 22.5C45 10.0736 34.9264 0 22.5 0C10.0736 0 0 10.0736 0 22.5C0 34.9264 10.0736 45 22.5 45C23.0019 45 23.4999 44.9836 23.9936 44.9512V28.1489H18.3083V21.0638H23.9936V15.6064C24.0739 12.9894 25.6317 7.46809 31.5578 7.03723L38.1585 6.98936V14.0745H34.6895C33.2923 14.0745 31.3844 15.0702 31.076 17.3298V21.0638H38.1585L36.7131 28.1489H31.0278V43.3277Z"/>
</mask>
<path fill-rule="evenodd" clip-rule="evenodd" d="M31.0278 43.3277C39.2257 39.9676 45 31.9081 45 22.5C45 10.0736 34.9264 0 22.5 0C10.0736 0 0 10.0736 0 22.5C0 34.9264 10.0736 45 22.5 45C23.0019 45 23.4999 44.9836 23.9936 44.9512V28.1489H18.3083V21.0638H23.9936V15.6064C24.0739 12.9894 25.6317 7.46809 31.5578 7.03723L38.1585 6.98936V14.0745H34.6895C33.2923 14.0745 31.3844 15.0702 31.076 17.3298V21.0638H38.1585L36.7131 28.1489H31.0278V43.3277Z" fill="white"/>
<path d="M31.0278 43.3277H30.0278V44.8183L31.4071 44.253L31.0278 43.3277ZM23.9936 44.9512L24.059 45.9491L24.9936 45.8878V44.9512H23.9936ZM23.9936 28.1489H24.9936V27.1489H23.9936V28.1489ZM18.3083 28.1489H17.3083V29.1489H18.3083V28.1489ZM18.3083 21.0638V20.0638H17.3083V21.0638H18.3083ZM23.9936 21.0638V22.0638H24.9936V21.0638H23.9936ZM23.9936 15.6064L22.994 15.5757L22.9936 15.591V15.6064H23.9936ZM31.5578 7.03723L31.5506 6.03726L31.5179 6.0375L31.4853 6.03987L31.5578 7.03723ZM38.1585 6.98936H39.1585V5.98208L38.1512 5.98939L38.1585 6.98936ZM38.1585 14.0745V15.0745H39.1585V14.0745H38.1585ZM31.076 17.3298L30.0852 17.1946L30.076 17.2619V17.3298H31.076ZM31.076 21.0638H30.076V22.0638H31.076V21.0638ZM38.1585 21.0638L39.1383 21.2637L39.3831 20.0638H38.1585V21.0638ZM36.7131 28.1489V29.1489H37.5297L37.6929 28.3488L36.7131 28.1489ZM31.0278 28.1489V27.1489H30.0278V28.1489H31.0278ZM44 22.5C44 31.4884 38.484 39.1908 30.6486 42.4024L31.4071 44.253C39.9674 40.7443 46 32.3278 46 22.5H44ZM22.5 1C34.3741 1 44 10.6259 44 22.5H46C46 9.52131 35.4787 -1 22.5 -1V1ZM1 22.5C1 10.6259 10.6259 1 22.5 1V-1C9.52131 -1 -1 9.52131 -1 22.5H1ZM22.5 44C10.6259 44 1 34.3741 1 22.5H-1C-1 35.4787 9.52131 46 22.5 46V44ZM23.9282 43.9534C23.4562 43.9843 22.98 44 22.5 44V46C23.0237 46 23.5435 45.9829 24.059 45.9491L23.9282 43.9534ZM22.9936 28.1489V44.9512H24.9936V28.1489H22.9936ZM18.3083 29.1489H23.9936V27.1489H18.3083V29.1489ZM17.3083 21.0638V28.1489H19.3083V21.0638H17.3083ZM23.9936 20.0638H18.3083V22.0638H23.9936V20.0638ZM22.9936 15.6064V21.0638H24.9936V15.6064H22.9936ZM31.4853 6.03987C28.1682 6.28103 26.0308 7.97101 24.7441 9.95854C23.4836 11.9055 23.0385 14.1279 22.994 15.5757L24.9931 15.6371C25.029 14.4679 25.4029 12.6211 26.423 11.0454C27.4167 9.51037 29.0213 8.22429 31.6303 8.0346L31.4853 6.03987ZM38.1512 5.98939L31.5506 6.03726L31.5651 8.03721L38.1657 7.98934L38.1512 5.98939ZM39.1585 14.0745V6.98936H37.1585V14.0745H39.1585ZM34.6895 15.0745H38.1585V13.0745H34.6895V15.0745ZM32.0668 17.465C32.2934 15.8048 33.6798 15.0745 34.6895 15.0745V13.0745C32.9048 13.0745 30.4753 14.3357 30.0852 17.1946L32.0668 17.465ZM32.076 21.0638V17.3298H30.076V21.0638H32.076ZM38.1585 20.0638H31.076V22.0638H38.1585V20.0638ZM37.6929 28.3488L39.1383 21.2637L37.1786 20.8639L35.7332 27.949L37.6929 28.3488ZM31.0278 29.1489H36.7131V27.1489H31.0278V29.1489ZM32.0278 43.3277V28.1489H30.0278V43.3277H32.0278Z" fill="white" mask="url(#path-1-inside-1_46_6)"/>
</svg>
