<svg width="274" height="47" viewBox="0 0 274 47" fill="none" xmlns="http://www.w3.org/2000/svg">
<path fill-rule="evenodd" clip-rule="evenodd" d="M8.375 20.2733C8.51463 19.9607 8.68129 19.6732 8.875 19.4108C8.98817 19.2575 9.11056 19.1127 9.24219 18.9766C9.71094 18.5078 10.2891 18.1562 10.9766 17.9219C11.6797 17.6719 12.5078 17.5469 13.4609 17.5469C13.8359 17.5469 14.25 17.5703 14.7031 17.6172C14.7703 17.6217 14.8359 17.6263 14.9002 17.6311C15.2846 17.6598 15.6173 17.6942 15.8984 17.7344L15.9173 16.7276L16.0156 11.4766C15.7656 11.3828 15.4453 11.3125 15.0547 11.2656C14.6641 11.2031 14.2812 11.1719 13.9062 11.1719C12.7188 11.1719 11.6641 11.4531 10.7422 12.0156C10.1368 12.385 9.59197 12.8555 9.10784 13.4271C8.94851 13.6153 8.79576 13.8143 8.64957 14.0243C8.56358 14.1479 8.47987 14.2752 8.39844 14.4062C8.33068 14.5181 8.26467 14.632 8.2004 14.748L8.16562 14.2651L8.16535 14.2615L8.13462 13.8349L8.08216 13.1065L7.97656 11.6406H2.625H1.625V12.6406V36V37H2.625H7.375H8.375V36V20.7447V20.2733ZM9.375 20.4991C9.53513 20.1851 9.72901 19.913 9.95527 19.6777C10.3049 19.33 10.7456 19.0571 11.2992 18.8684L11.2993 18.8685L11.3116 18.8641C11.882 18.6613 12.5918 18.5469 13.4609 18.5469C13.7952 18.5469 14.1743 18.5678 14.6002 18.6119L14.6184 18.6138L14.6366 18.615C15.0897 18.6452 15.4616 18.6821 15.757 18.7243L16.8771 18.8843L16.8983 17.7531L17.0154 11.4953L17.0287 10.7885L16.3667 10.5402C16.021 10.4106 15.6222 10.3276 15.1934 10.2751C14.7599 10.2067 14.3307 10.1719 13.9062 10.1719C12.5539 10.1719 11.3155 10.4944 10.2213 11.162C9.78811 11.4263 9.3848 11.7335 9.01091 12.0815L8.97398 11.5688L8.90712 10.6406H7.97656H1.625H0.625V11.6406V37V38H1.625H8.375H9.375V37V20.4991ZM27.0189 26.4062H27.5189H28.0272H29.8898L28.2333 27.4062C28.2594 27.4991 28.2871 27.5908 28.3166 27.6812C28.5761 28.4297 28.9294 29.0557 29.3682 29.5734C29.8175 30.0854 30.3537 30.4815 30.9858 30.7658C31.6213 31.0449 32.3628 31.1953 33.2281 31.1953C34.3138 31.1953 35.3053 30.9876 36.2149 30.5809C37.1232 30.1662 37.912 29.543 38.5842 28.6924L39.3106 27.7733L40.1043 28.635L43.3855 32.1975L43.9283 32.7868L43.4716 33.4451C42.869 34.3135 42.064 35.1198 41.08 35.8708C40.076 36.649 38.8849 37.2735 37.5225 37.7553L37.5122 37.7589L37.5122 37.7589C36.1076 38.2385 34.5343 38.4688 32.8063 38.4688C30.7316 38.4688 28.8369 38.1393 27.138 37.4597L27.13 37.4565L27.13 37.4565C25.4503 36.7678 24.0046 35.8106 22.808 34.5799L22.803 34.5747C21.632 33.3528 20.7335 31.9356 20.1088 30.3317L20.1075 30.3284C19.483 28.708 19.1734 26.9918 19.1734 25.1875V24.25C19.1734 22.233 19.4605 20.3638 20.0479 18.652C20.6328 16.9475 21.4752 15.4501 22.5818 14.1732L22.5868 14.1675L22.5868 14.1675C23.7182 12.8818 25.0905 11.8965 26.6919 11.2144C28.3033 10.5123 30.0972 10.1719 32.0562 10.1719C33.9631 10.1719 35.6943 10.4871 37.2302 11.1428C38.7535 11.7932 40.0444 12.7253 41.0863 13.9399C42.1372 15.1467 42.918 16.5821 43.4389 18.2281L43.4385 18.2268L42.5566 18.7592C42.5336 18.6828 42.5101 18.6068 42.4859 18.5312C42.0016 17 41.2828 15.6875 40.3297 14.5938C39.3922 13.5 38.2281 12.6562 36.8375 12.0625C35.4469 11.4688 33.8531 11.1719 32.0562 11.1719C30.2125 11.1719 28.5562 11.4922 27.0875 12.1328C25.6187 12.7578 24.3687 13.6562 23.3375 14.8281C22.3219 16 21.5406 17.3828 20.9937 18.9766C20.4469 20.5703 20.1734 22.3281 20.1734 24.25V25.1875C20.1734 26.875 20.4625 28.4688 21.0406 29.9688C21.6187 31.4531 22.4469 32.7578 23.525 33.8828C24.6187 35.0078 25.9469 35.8906 27.5094 36.5312C29.0719 37.1562 30.8375 37.4688 32.8063 37.4688C34.4469 37.4688 35.9078 37.25 37.1891 36.8125C38.4703 36.3594 39.5641 35.7812 40.4703 35.0781C41.3922 34.375 42.1188 33.6406 42.65 32.875L40.0538 30.0563L39.3688 29.3125C39.1568 29.5806 38.9335 29.8302 38.6989 30.0613C38.0857 30.6649 37.395 31.1419 36.6266 31.4922C35.5797 31.9609 34.4469 32.1953 33.2281 32.1953C32.2437 32.1953 31.3609 32.0234 30.5797 31.6797C29.8141 31.3359 29.1578 30.8516 28.6109 30.2266C28.0797 29.6016 27.6656 28.8594 27.3687 28C27.3053 27.8061 27.249 27.6081 27.1998 27.4062C27.1238 27.0938 27.0649 26.7718 27.0231 26.4403L27.0189 26.4062ZM42.5569 18.7604L42.5566 18.7592L29.8898 26.4062H29.89L28.2333 27.4062H43.2125H44.2125V26.4062V23.5938C44.2125 21.6485 43.9592 19.8567 43.4389 18.2281L42.5569 18.7604ZM42.5569 18.7604C42.994 20.2164 43.2125 21.8276 43.2125 23.5938V25.4062V26.4062H42.2125H29.89L42.5569 18.7604ZM62.6437 21.5068L62.6436 21.5068L60.1203 21.5547C58.1828 21.5547 56.4797 21.7422 55.0109 22.1172C53.5422 22.4766 52.3156 23.0156 51.3312 23.7344C50.3625 24.4375 49.6281 25.3047 49.1281 26.3359C48.6281 27.3672 48.3781 28.5469 48.3781 29.875C48.3781 31.3438 48.7531 32.6562 49.5031 33.8125C50.2687 34.9531 51.3 35.8516 52.5969 36.5078C53.9094 37.1484 55.3703 37.4688 56.9797 37.4688C58.2453 37.4688 59.3391 37.2812 60.2609 36.9062C61.1552 36.5273 61.9245 36.0528 62.5688 35.4827C62.5887 35.4651 62.6085 35.4475 62.6281 35.4297C62.7521 35.3146 62.8718 35.1981 62.9874 35.0803C63.1359 34.9288 63.2776 34.775 63.4123 34.6189C63.4509 34.8329 63.493 35.0392 63.5386 35.2378C63.5833 35.4324 63.6314 35.6195 63.6828 35.7993C63.8105 36.2452 63.9589 36.6455 64.1281 37H69.9484H70.0298H70.1516H70.9484V36.6016C70.8528 36.4103 70.7638 36.2098 70.6815 36C70.4813 35.4898 70.3202 34.9247 70.1984 34.3047C70.0266 33.4141 69.9406 32.2734 69.9406 30.8828V20.0312C69.9406 18.0625 69.4953 16.4219 68.6047 15.1094C67.7297 13.7969 66.5266 12.8125 64.9953 12.1562C63.4641 11.5 61.7141 11.1719 59.7453 11.1719C58.1047 11.1719 56.6203 11.3828 55.2922 11.8047C53.9797 12.2266 52.8469 12.8125 51.8937 13.5625C50.9406 14.2969 50.2141 15.1484 49.7141 16.1172C49.3712 16.7816 49.1458 17.4717 49.0381 18.1875C48.9887 18.5154 48.9641 18.8488 48.9641 19.1875H49.9641H54.7141H55.7141C55.7141 18.5469 55.8625 17.9922 56.1594 17.5234C56.4562 17.0391 56.8781 16.6719 57.425 16.4219C57.9719 16.1562 58.6203 16.0234 59.3703 16.0234C60.2453 16.0234 60.9562 16.1875 61.5031 16.5156C62.0656 16.8438 62.4797 17.3047 62.7453 17.8984C63.0109 18.4766 63.1437 19.1719 63.1437 19.9844V20.5V21.4963V21.5H63L62.6437 21.5068ZM62.1437 20.5161L60.1108 20.5547C58.1176 20.5553 56.3331 20.7481 54.7684 21.147C53.2049 21.5301 51.8533 22.1153 50.7427 22.9259C49.6474 23.7212 48.8032 24.714 48.2283 25.8997C47.6527 27.0869 47.3781 28.4197 47.3781 29.875C47.3781 31.5236 47.802 33.0276 48.6642 34.3567L48.6684 34.3633L48.6728 34.3698C49.5395 35.661 50.7048 36.6711 52.1454 37.4001L52.1518 37.4033L52.1582 37.4065C53.6208 38.1203 55.234 38.4688 56.9797 38.4688C58.3408 38.4688 59.5685 38.2675 60.6377 37.8325L60.6444 37.8298L60.6511 37.827C61.474 37.4783 62.2146 37.0498 62.8656 36.5371C62.9728 36.8537 63.0926 37.1519 63.2256 37.4307L63.4973 38H64.1281H70.9484H71.9484V37V36.6016V36.3655L71.8429 36.1544C71.5627 35.594 71.3381 34.9176 71.18 34.1133C71.0249 33.309 70.9406 32.2386 70.9406 30.8828V20.0312C70.9406 17.9122 70.4603 16.0646 69.4342 14.5508C68.4456 13.0696 67.0868 11.9646 65.3892 11.2371C63.713 10.5187 61.8252 10.1719 59.7453 10.1719C58.0197 10.1719 56.431 10.3937 54.9894 10.8516L54.9862 10.8527C53.5776 11.3054 52.3368 11.9422 51.2793 12.7735C50.2242 13.5873 49.3986 14.548 48.8254 15.6585C48.2531 16.7674 47.9641 17.948 47.9641 19.1875V20.1875H48.9641H55.7141H56.7141V19.1875C56.7141 18.7064 56.8236 18.3437 57.0042 18.0585L57.0081 18.0523L57.012 18.046C57.1987 17.7413 57.4636 17.5038 57.8408 17.3314L57.8514 17.3265L57.8619 17.3214C58.2446 17.1355 58.7371 17.0234 59.3703 17.0234C60.1288 17.0234 60.6446 17.1667 60.9886 17.3731L60.9886 17.3732L60.9993 17.3794C61.3814 17.6023 61.6523 17.9041 61.8325 18.3068L61.8324 18.3068L61.8366 18.3159C62.0279 18.7321 62.1437 19.2775 62.1437 19.9844V20.5161ZM85.6687 1V0H84.6687H77.8953H76.8953V1V37V38H77.8953H84.6687H85.6687V37V1ZM84.6687 37V36V2V1H83.6687H78.8953H77.8953V2V36V37H78.8953H83.6687H84.6687ZM36.6713 19.5012C36.7457 19.6643 36.8075 19.8309 36.8567 20H32.5H28.1433C28.1925 19.8309 28.2543 19.6643 28.3287 19.5012C28.5468 19.0224 28.8696 18.5808 29.2836 18.2044C29.6978 17.8279 30.1945 17.5247 30.7476 17.3165C31.3008 17.1082 31.8965 17 32.5 17C33.1035 17 33.6992 17.1082 34.2524 17.3165C34.8055 17.5247 35.3022 17.8279 35.7164 18.2044C36.1304 18.5808 36.4532 19.0224 36.6713 19.5012ZM37.5813 19.0866C37.716 19.3821 37.8188 19.6881 37.8889 20C37.9626 20.3283 38 20.6633 38 21H37H32.5H28H27C27 20.6633 27.0374 20.3283 27.1111 20C27.1812 19.6881 27.284 19.3821 27.4187 19.0866C27.6951 18.48 28.1002 17.9288 28.6109 17.4645C29.1216 17.0002 29.728 16.6319 30.3952 16.3806C31.0625 16.1293 31.7777 16 32.5 16C33.2223 16 33.9375 16.1293 34.6048 16.3806C35.272 16.6319 35.8784 17.0002 36.3891 17.4645C36.8998 17.9288 37.3049 18.48 37.5813 19.0866ZM59.2192 25.7936C60.6612 25.4572 62.181 25.4567 63.0592 25.5615L63.5 25.6141V26.058L63.5 30.2124V30.3354L63.4429 30.4443C62.3544 32.5231 60.0243 32.8069 58.2645 32.2468C57.3748 31.9636 56.558 31.4491 56.0443 30.7623C55.518 30.0588 55.3124 29.1685 55.7018 28.2388C56.2964 26.8194 57.8032 26.124 59.2192 25.7936ZM59.4465 26.7675C58.1071 27.08 57.0241 27.6705 56.6242 28.6251C56.3921 29.1791 56.4972 29.6983 56.845 30.1633C57.2053 30.6449 57.8259 31.0577 58.5677 31.2939C60.0352 31.7609 61.6996 31.4769 62.5 30.0844L62.5 26.5165C61.6943 26.4699 60.54 26.5123 59.4465 26.7675ZM99.375 46.75V34.7976C100.009 35.5045 100.735 36.0823 101.555 36.5312C102.695 37.1562 104.039 37.4688 105.586 37.4688C107.18 37.4688 108.586 37.1484 109.805 36.5078C111.039 35.8516 112.07 34.9453 112.898 33.7891C113.727 32.6172 114.352 31.2422 114.773 29.6641C115.211 28.0859 115.43 26.375 115.43 24.5312V24.0391C115.43 22.1172 115.211 20.3672 114.773 18.7891C114.352 17.2109 113.719 15.8516 112.875 14.7109C112.047 13.5703 111.016 12.6953 109.781 12.0859C108.562 11.4766 107.148 11.1719 105.539 11.1719C104.008 11.1719 102.672 11.4844 101.531 12.1094C100.62 12.6159 99.8208 13.2917 99.1348 14.1368L98.8828 11.6406H92.625V46.75H99.375ZM100.898 31.3984C100.24 30.9322 99.7324 30.3214 99.375 29.5663V19.0404C99.518 18.7386 99.682 18.4595 99.8672 18.2031C100.273 17.6406 100.797 17.2109 101.438 16.9141C102.094 16.6172 102.883 16.4688 103.805 16.4688C104.68 16.4688 105.422 16.6641 106.031 17.0547C106.656 17.4297 107.156 17.9609 107.531 18.6484C107.922 19.3359 108.203 20.1406 108.375 21.0625C108.562 21.9688 108.656 22.9609 108.656 24.0391V24.5312C108.656 25.5938 108.57 26.5859 108.398 27.5078C108.242 28.4297 107.969 29.2422 107.578 29.9453C107.203 30.6484 106.711 31.2031 106.102 31.6094C105.492 32 104.742 32.1953 103.852 32.1953C102.633 32.1953 101.648 31.9297 100.898 31.3984ZM128.775 37V20.2733C128.996 19.7781 129.285 19.3458 129.642 18.9766C130.111 18.5078 130.689 18.1562 131.377 17.9219C132.08 17.6719 132.908 17.5469 133.861 17.5469C134.236 17.5469 134.65 17.5703 135.103 17.6172C135.572 17.6484 135.97 17.6875 136.298 17.7344L136.416 11.4766C136.166 11.3828 135.845 11.3125 135.455 11.2656C135.064 11.2031 134.681 11.1719 134.306 11.1719C133.119 11.1719 132.064 11.4531 131.142 12.0156C130.22 12.5781 129.439 13.375 128.798 14.4062C128.731 14.5181 128.665 14.632 128.6 14.748L128.377 11.6406H122.025V37H128.775ZM140.222 24.0859V24.5781C140.222 26.4219 140.488 28.1328 141.019 29.7109C141.55 31.2734 142.323 32.6406 143.339 33.8125C144.37 34.9688 145.628 35.8672 147.113 36.5078C148.613 37.1484 150.323 37.4688 152.245 37.4688C154.167 37.4688 155.87 37.1484 157.355 36.5078C158.839 35.8672 160.089 34.9688 161.105 33.8125C162.136 32.6406 162.917 31.2734 163.448 29.7109C163.98 28.1328 164.245 26.4219 164.245 24.5781V24.0859C164.245 22.2266 163.98 20.5156 163.448 18.9531C162.917 17.375 162.136 16.0078 161.105 14.8516C160.089 13.6953 158.831 12.7969 157.331 12.1562C155.831 11.5 154.12 11.1719 152.198 11.1719C150.277 11.1719 148.573 11.5 147.089 12.1562C145.605 12.7969 144.355 13.6953 143.339 14.8516C142.323 16.0078 141.55 17.375 141.019 18.9531C140.488 20.5156 140.222 22.2266 140.222 24.0859ZM146.972 24.5781V24.0859C146.972 23.0547 147.066 22.0859 147.253 21.1797C147.441 20.2578 147.738 19.4453 148.144 18.7422C148.566 18.0234 149.105 17.4609 149.761 17.0547C150.433 16.6484 151.245 16.4453 152.198 16.4453C153.152 16.4453 153.964 16.6484 154.636 17.0547C155.308 17.4609 155.847 18.0234 156.253 18.7422C156.675 19.4453 156.98 20.2578 157.167 21.1797C157.37 22.0859 157.472 23.0547 157.472 24.0859V24.5781C157.472 25.6406 157.37 26.6328 157.167 27.5547C156.98 28.4766 156.683 29.2891 156.277 29.9922C155.87 30.6797 155.331 31.2188 154.659 31.6094C153.988 32 153.183 32.1953 152.245 32.1953C151.277 32.1953 150.456 32 149.784 31.6094C149.113 31.2188 148.566 30.6797 148.144 29.9922C147.738 29.2891 147.441 28.4766 147.253 27.5547C147.066 26.6328 146.972 25.6406 146.972 24.5781ZM186.848 11.6406H192.966V36.1562C192.966 38.4688 192.45 40.4297 191.419 42.0391C190.403 43.6641 188.981 44.8906 187.153 45.7188C185.325 46.5625 183.2 46.9844 180.778 46.9844C179.716 46.9844 178.591 46.8438 177.403 46.5625C176.231 46.2812 175.106 45.8438 174.028 45.25C172.966 44.6562 172.075 43.9062 171.356 43L174.333 39.0156C175.114 39.9219 176.02 40.625 177.052 41.125C178.083 41.6406 179.223 41.8984 180.473 41.8984C181.692 41.8984 182.723 41.6719 183.567 41.2188C184.411 40.7812 185.059 40.1328 185.512 39.2734C185.966 38.4297 186.192 37.4062 186.192 36.2031V34.8104C185.569 35.5114 184.85 36.085 184.036 36.5312C182.911 37.1562 181.567 37.4688 180.005 37.4688C178.442 37.4688 177.028 37.1484 175.762 36.5078C174.512 35.8672 173.442 34.9688 172.552 33.8125C171.661 32.6562 170.973 31.2969 170.489 29.7344C170.02 28.1719 169.786 26.4688 169.786 24.625V24.1328C169.786 22.1953 170.02 20.4375 170.489 18.8594C170.973 17.2656 171.653 15.8984 172.528 14.7578C173.419 13.6172 174.497 12.7344 175.762 12.1094C177.028 11.4844 178.458 11.1719 180.052 11.1719C181.739 11.1719 183.153 11.4844 184.294 12.1094C185.178 12.5937 185.94 13.2376 186.58 14.041L186.848 11.6406ZM186.192 29.8076V18.8655C186.07 18.6468 185.937 18.4416 185.794 18.25C185.372 17.6875 184.825 17.25 184.153 16.9375C183.481 16.625 182.684 16.4688 181.762 16.4688C180.872 16.4688 180.098 16.6719 179.442 17.0781C178.802 17.4688 178.262 18.0078 177.825 18.6953C177.403 19.3828 177.083 20.1953 176.864 21.1328C176.645 22.0547 176.536 23.0547 176.536 24.1328V24.625C176.536 25.6719 176.637 26.6484 176.841 27.5547C177.044 28.4609 177.356 29.2656 177.778 29.9688C178.216 30.6562 178.755 31.1953 179.395 31.5859C180.052 31.9609 180.825 32.1484 181.716 32.1484C182.95 32.1484 183.958 31.8906 184.739 31.375C185.338 30.9675 185.823 30.445 186.192 29.8076ZM222.788 11.6406H216.67L216.401 14.041C215.762 13.2376 215 12.5937 214.116 12.1094C212.975 11.4844 211.561 11.1719 209.873 11.1719C208.28 11.1719 206.85 11.4844 205.584 12.1094C204.319 12.7344 203.241 13.6172 202.35 14.7578C201.475 15.8984 200.795 17.2656 200.311 18.8594C199.842 20.4375 199.608 22.1953 199.608 24.1328V24.625C199.608 26.4688 199.842 28.1719 200.311 29.7344C200.795 31.2969 201.483 32.6562 202.373 33.8125C203.264 34.9688 204.334 35.8672 205.584 36.5078C206.85 37.1484 208.264 37.4688 209.827 37.4688C211.389 37.4688 212.733 37.1562 213.858 36.5312C214.672 36.085 215.391 35.5114 216.014 34.8104V36.2031C216.014 37.4062 215.788 38.4297 215.334 39.2734C214.881 40.1328 214.233 40.7812 213.389 41.2188C212.545 41.6719 211.514 41.8984 210.295 41.8984C209.045 41.8984 207.905 41.6406 206.873 41.125C205.842 40.625 204.936 39.9219 204.155 39.0156L201.178 43C201.897 43.9062 202.788 44.6562 203.85 45.25C204.928 45.8438 206.053 46.2812 207.225 46.5625C208.413 46.8438 209.538 46.9844 210.6 46.9844C213.022 46.9844 215.147 46.5625 216.975 45.7188C218.803 44.8906 220.225 43.6641 221.241 42.0391C222.272 40.4297 222.788 38.4688 222.788 36.1562V11.6406ZM216.014 18.8655V29.8076C215.645 30.445 215.16 30.9675 214.561 31.375C213.78 31.8906 212.772 32.1484 211.538 32.1484C210.647 32.1484 209.873 31.9609 209.217 31.5859C208.577 31.1953 208.038 30.6562 207.6 29.9688C207.178 29.2656 206.866 28.4609 206.663 27.5547C206.459 26.6484 206.358 25.6719 206.358 24.625V24.1328C206.358 23.0547 206.467 22.0547 206.686 21.1328C206.905 20.1953 207.225 19.3828 207.647 18.6953C208.084 18.0078 208.623 17.4688 209.264 17.0781C209.92 16.6719 210.694 16.4688 211.584 16.4688C212.506 16.4688 213.303 16.625 213.975 16.9375C214.647 17.25 215.194 17.6875 215.616 18.25C215.759 18.4416 215.892 18.6468 216.014 18.8655ZM242.109 37.4688C240.141 37.4688 238.375 37.1562 236.812 36.5312C235.25 35.8906 233.922 35.0078 232.828 33.8828C231.75 32.7578 230.922 31.4531 230.344 29.9688C229.766 28.4688 229.477 26.875 229.477 25.1875V24.25C229.477 22.3281 229.75 20.5703 230.297 18.9766C230.844 17.3828 231.625 16 232.641 14.8281C233.672 13.6562 234.922 12.7578 236.391 12.1328C237.859 11.4922 239.516 11.1719 241.359 11.1719C243.156 11.1719 244.75 11.4688 246.141 12.0625C247.531 12.6562 248.695 13.5 249.633 14.5938C250.586 15.6875 251.305 17 251.789 18.5312C252.273 20.0469 252.516 21.7344 252.516 23.5938V26.4062H236.322C236.39 26.9644 236.507 27.4957 236.672 28C236.969 28.8594 237.383 29.6016 237.914 30.2266C238.461 30.8516 239.117 31.3359 239.883 31.6797C240.664 32.0234 241.547 32.1953 242.531 32.1953C243.75 32.1953 244.883 31.9609 245.93 31.4922C246.992 31.0078 247.906 30.2812 248.672 29.3125L251.953 32.875C251.422 33.6406 250.695 34.375 249.773 35.0781C248.867 35.7812 247.773 36.3594 246.492 36.8125C245.211 37.25 243.75 37.4688 242.109 37.4688ZM236.531 21.1562C236.483 21.3999 236.44 21.6499 236.404 21.9062H245.883V21.3906C245.883 20.4531 245.711 19.6172 245.367 18.8828C245.039 18.1328 244.539 17.5391 243.867 17.1016C243.195 16.6641 242.336 16.4453 241.289 16.4453C240.398 16.4453 239.633 16.6406 238.992 17.0312C238.352 17.4219 237.828 17.9688 237.422 18.6719C237.031 19.375 236.734 20.2031 236.531 21.1562ZM265.509 20.2733V37H258.759V11.6406H265.111L265.335 14.748C265.399 14.632 265.465 14.5181 265.533 14.4062C266.173 13.375 266.955 12.5781 267.877 12.0156C268.798 11.4531 269.853 11.1719 271.041 11.1719C271.416 11.1719 271.798 11.2031 272.189 11.2656C272.58 11.3125 272.9 11.3828 273.15 11.4766L273.033 17.7344C272.705 17.6875 272.306 17.6484 271.837 17.6172C271.384 17.5703 270.97 17.5469 270.595 17.5469C269.642 17.5469 268.814 17.6719 268.111 17.9219C267.423 18.1562 266.845 18.5078 266.377 18.9766C266.02 19.3458 265.731 19.778 265.509 20.2733Z" fill="black"/>
</svg>
