<svg width="85" height="86" viewBox="0 0 85 86" fill="none" xmlns="http://www.w3.org/2000/svg">
<path fill-rule="evenodd" clip-rule="evenodd" d="M55.3974 8.82271L61.8224 2.40102C64.9474 -0.722372 70.014 -0.72238 73.139 2.40101L82.5984 11.8555C85.7234 14.9788 85.7234 20.0429 82.5984 23.1663L76.1733 29.588L55.3974 8.82271ZM52.7639 11.4549L9.72903 54.4676L14.4217 59.1578L57.4565 16.1451L52.7639 11.4549ZM23.8127 68.5439L15.908 60.6434L58.9429 17.6307L66.8475 25.5313L23.8127 68.5439ZM25.299 70.0295L68.3339 27.0169L73.5398 32.2201L30.505 75.2328L25.299 70.0295ZM4.51512 70.3161L9.05324 55.5286L29.5154 75.9801L14.7202 80.5159L4.51512 70.3161ZM3.45279 73.7777L0 85.0287L11.2568 81.5777L3.45279 73.7777Z" fill="black"/>
</svg>
