<svg width="60" height="35" viewBox="0 0 60 35" fill="none" xmlns="http://www.w3.org/2000/svg">
<path d="M35.0386 1.77434C35.0124 0.465836 34.003 0.0745687 33.5015 0.0424976C30.1112 0.0104274 23.1604 -0.0344705 22.4802 0.0425001C21.6953 0.266998 21.2374 0.972562 21.2701 1.61398C21.3028 2.25541 22.1204 3.08925 22.8399 4.08346C23.4155 4.87882 23.7556 6.51017 23.8538 7.22643V16.8157C24.1154 19.407 23.2215 19.8838 22.7418 19.7983C18.3267 19.2531 12.4073 4.11553 11.5897 1.99884C11.0664 0.363211 9.73642 -0.0109517 9.20225 0.0425001H1.51675C0.873563 0.128023 -0.314692 0.722408 0.077759 2.41576C1.05889 7.86785 3.31548 11.5881 7.04376 18.3872C17.411 35.4811 28.4323 34.9679 31.6374 34.9679C34.2014 34.9679 35.0059 33.7492 35.0713 33.1719C35.0822 31.6539 35.0975 28.1753 35.0713 26.4049C35.0451 24.6346 36.1506 24.3845 36.7065 24.4807C42.4952 25.4107 47.4989 34.8396 50.5077 35C53.0805 34.9786 58.2652 34.9359 58.4221 34.9359C58.6184 34.9359 60.1228 34.8717 59.992 32.8833C59.6322 29.7403 51.8813 22.0433 50.148 20.4718C48.7613 19.2146 49.1777 18.0451 49.5593 17.6175L57.0486 6.10394C57.0486 6.10394 60.875 0.106642 57.2121 0.0745712C53.5492 0.0425001 52.2737 0.0424976 50.7694 0.0104265C49.265 -0.0216446 48.0549 0.331137 47.5316 1.32534C42.3971 12.4219 38.9304 15.597 37.1644 16.7515C35.7516 17.6752 35.1585 16.3667 35.0386 15.597C35.0495 11.5346 35.0648 3.08284 35.0386 1.77434Z" fill="white"/>
</svg>
